<svg width="130" height="60" viewBox="0 0 130 60" fill="none" xmlns="http://www.w3.org/2000/svg">
<rect width="130" height="60" fill="#1E1E1E"/>
<rect width="130" height="60" fill="white"/>
<g style="mix-blend-mode:darken" filter="url(#filter0_b_0_1)">
<mask id="path-2-outside-1_0_1" maskUnits="userSpaceOnUse" x="31" y="7" width="69" height="30" fill="black">
<rect fill="white" x="31" y="7" width="69" height="30"/>
<path d="M32.0201 35V8.81818H35.1905V20.4773H49.1507V8.81818H52.3212V35H49.1507V23.2898H35.1905V35H32.0201ZM79.4299 8.81818V35H76.3617L62.0946 14.4432H61.839V35H58.6685V8.81818H61.7367L76.0549 29.4261H76.3105V8.81818H79.4299ZM95.7967 8.81818H98.9672V27.5341C98.9672 29.2045 98.6603 30.6236 98.0467 31.7912C97.4331 32.9588 96.568 33.8452 95.4515 34.4503C94.335 35.0554 93.0183 35.358 91.5012 35.358C90.0694 35.358 88.7953 35.098 87.6788 34.5781C86.5623 34.0497 85.6845 33.2997 85.0453 32.3281C84.4061 31.3565 84.0865 30.2017 84.0865 28.8636H87.2058C87.2058 29.6051 87.389 30.2528 87.7555 30.8068C88.1305 31.3523 88.6419 31.7784 89.2896 32.0852C89.9373 32.392 90.6745 32.5455 91.5012 32.5455C92.4132 32.5455 93.1887 32.3537 93.8279 31.9702C94.4672 31.5866 94.9529 31.0241 95.2853 30.2827C95.6262 29.5327 95.7967 28.6165 95.7967 27.5341V8.81818Z"/>
</mask>
<path d="M32.0201 35V8.81818H35.1905V20.4773H49.1507V8.81818H52.3212V35H49.1507V23.2898H35.1905V35H32.0201ZM79.4299 8.81818V35H76.3617L62.0946 14.4432H61.839V35H58.6685V8.81818H61.7367L76.0549 29.4261H76.3105V8.81818H79.4299ZM95.7967 8.81818H98.9672V27.5341C98.9672 29.2045 98.6603 30.6236 98.0467 31.7912C97.4331 32.9588 96.568 33.8452 95.4515 34.4503C94.335 35.0554 93.0183 35.358 91.5012 35.358C90.0694 35.358 88.7953 35.098 87.6788 34.5781C86.5623 34.0497 85.6845 33.2997 85.0453 32.3281C84.4061 31.3565 84.0865 30.2017 84.0865 28.8636H87.2058C87.2058 29.6051 87.389 30.2528 87.7555 30.8068C88.1305 31.3523 88.6419 31.7784 89.2896 32.0852C89.9373 32.392 90.6745 32.5455 91.5012 32.5455C92.4132 32.5455 93.1887 32.3537 93.8279 31.9702C94.4672 31.5866 94.9529 31.0241 95.2853 30.2827C95.6262 29.5327 95.7967 28.6165 95.7967 27.5341V8.81818Z" fill="#DFB769"/>
<path d="M32.0201 35H31.0201V36H32.0201V35ZM32.0201 8.81818V7.81818H31.0201V8.81818H32.0201ZM35.1905 8.81818H36.1905V7.81818H35.1905V8.81818ZM35.1905 20.4773H34.1905V21.4773H35.1905V20.4773ZM49.1507 20.4773V21.4773H50.1507V20.4773H49.1507ZM49.1507 8.81818V7.81818H48.1507V8.81818H49.1507ZM52.3212 8.81818H53.3212V7.81818H52.3212V8.81818ZM52.3212 35V36H53.3212V35H52.3212ZM49.1507 35H48.1507V36H49.1507V35ZM49.1507 23.2898H50.1507V22.2898H49.1507V23.2898ZM35.1905 23.2898V22.2898H34.1905V23.2898H35.1905ZM35.1905 35V36H36.1905V35H35.1905ZM33.0201 35V8.81818H31.0201V35H33.0201ZM32.0201 9.81818H35.1905V7.81818H32.0201V9.81818ZM34.1905 8.81818V20.4773H36.1905V8.81818H34.1905ZM35.1905 21.4773H49.1507V19.4773H35.1905V21.4773ZM50.1507 20.4773V8.81818H48.1507V20.4773H50.1507ZM49.1507 9.81818H52.3212V7.81818H49.1507V9.81818ZM51.3212 8.81818V35H53.3212V8.81818H51.3212ZM52.3212 34H49.1507V36H52.3212V34ZM50.1507 35V23.2898H48.1507V35H50.1507ZM49.1507 22.2898H35.1905V24.2898H49.1507V22.2898ZM34.1905 23.2898V35H36.1905V23.2898H34.1905ZM35.1905 34H32.0201V36H35.1905V34ZM79.4299 8.81818H80.4299V7.81818H79.4299V8.81818ZM79.4299 35V36H80.4299V35H79.4299ZM76.3617 35L75.5402 35.5702L75.8385 36H76.3617V35ZM62.0946 14.4432L62.9162 13.873L62.6178 13.4432H62.0946V14.4432ZM61.839 14.4432V13.4432H60.839V14.4432H61.839ZM61.839 35V36H62.839V35H61.839ZM58.6685 35H57.6685V36H58.6685V35ZM58.6685 8.81818V7.81818H57.6685V8.81818H58.6685ZM61.7367 8.81818L62.5579 8.24759L62.2596 7.81818H61.7367V8.81818ZM76.0549 29.4261L75.2336 29.9967L75.532 30.4261H76.0549V29.4261ZM76.3105 29.4261V30.4261H77.3105V29.4261H76.3105ZM76.3105 8.81818V7.81818H75.3105V8.81818H76.3105ZM78.4299 8.81818V35H80.4299V8.81818H78.4299ZM79.4299 34H76.3617V36H79.4299V34ZM77.1832 34.4298L62.9162 13.873L61.2731 15.0133L75.5402 35.5702L77.1832 34.4298ZM62.0946 13.4432H61.839V15.4432H62.0946V13.4432ZM60.839 14.4432V35H62.839V14.4432H60.839ZM61.839 34H58.6685V36H61.839V34ZM59.6685 35V8.81818H57.6685V35H59.6685ZM58.6685 9.81818H61.7367V7.81818H58.6685V9.81818ZM60.9154 9.38877L75.2336 29.9967L76.8761 28.8555L62.5579 8.24759L60.9154 9.38877ZM76.0549 30.4261H76.3105V28.4261H76.0549V30.4261ZM77.3105 29.4261V8.81818H75.3105V29.4261H77.3105ZM76.3105 9.81818H79.4299V7.81818H76.3105V9.81818ZM95.7967 8.81818V7.81818H94.7967V8.81818H95.7967ZM98.9672 8.81818H99.9672V7.81818H98.9672V8.81818ZM98.0467 31.7912L98.9319 32.2564L98.9319 32.2564L98.0467 31.7912ZM95.4515 34.4503L95.928 35.3295L95.928 35.3295L95.4515 34.4503ZM87.6788 34.5781L87.251 35.482L87.2567 35.4847L87.6788 34.5781ZM85.0453 32.3281L84.2099 32.8777L84.2099 32.8777L85.0453 32.3281ZM84.0865 28.8636V27.8636H83.0865V28.8636H84.0865ZM87.2058 28.8636H88.2058V27.8636H87.2058V28.8636ZM87.7555 30.8068L86.9215 31.3586L86.9264 31.366L86.9315 31.3733L87.7555 30.8068ZM89.2896 32.0852L89.7177 31.1815L89.7177 31.1815L89.2896 32.0852ZM93.8279 31.9702L93.3135 31.1127L93.3135 31.1127L93.8279 31.9702ZM95.2853 30.2827L94.375 29.8689L94.3728 29.8736L95.2853 30.2827ZM95.7967 9.81818H98.9672V7.81818H95.7967V9.81818ZM97.9672 8.81818V27.5341H99.9672V8.81818H97.9672ZM97.9672 27.5341C97.9672 29.0846 97.6823 30.335 97.1615 31.326L98.9319 32.2564C99.6384 30.9121 99.9672 29.3245 99.9672 27.5341H97.9672ZM97.1615 31.326C96.6363 32.3253 95.9103 33.0642 94.975 33.5711L95.928 35.3295C97.2257 34.6261 98.2298 33.5923 98.9319 32.2564L97.1615 31.326ZM94.975 33.5711C94.0308 34.0828 92.8842 34.358 91.5012 34.358V36.358C93.1524 36.358 94.6393 36.0279 95.928 35.3295L94.975 33.5711ZM91.5012 34.358C90.1917 34.358 89.0654 34.1207 88.1009 33.6716L87.2567 35.4847C88.5252 36.0753 89.9472 36.358 91.5012 36.358V34.358ZM88.1066 33.6742C87.1452 33.2192 86.4128 32.5872 85.8807 31.7785L84.2099 32.8777C84.9562 34.0122 85.9795 34.8802 87.251 35.482L88.1066 33.6742ZM85.8807 31.7785C85.3643 30.9936 85.0865 30.0365 85.0865 28.8636H83.0865C83.0865 30.3669 83.4478 31.7194 84.2099 32.8777L85.8807 31.7785ZM84.0865 29.8636H87.2058V27.8636H84.0865V29.8636ZM86.2058 28.8636C86.2058 29.7777 86.4344 30.6223 86.9215 31.3586L88.5895 30.2551C88.3437 29.8834 88.2058 29.4325 88.2058 28.8636H86.2058ZM86.9315 31.3733C87.4146 32.0761 88.068 32.6131 88.8615 32.989L89.7177 31.1815C89.2157 30.9437 88.8464 30.6284 88.5795 30.2403L86.9315 31.3733ZM88.8615 32.989C89.6621 33.3682 90.5492 33.5455 91.5012 33.5455V31.5455C90.7999 31.5455 90.2125 31.4159 89.7177 31.1815L88.8615 32.989ZM91.5012 33.5455C92.554 33.5455 93.5165 33.3232 94.3424 32.8277L93.3135 31.1127C92.861 31.3841 92.2723 31.5455 91.5012 31.5455V33.5455ZM94.3424 32.8277C95.1729 32.3294 95.7897 31.6022 96.1978 30.6917L94.3728 29.8736C94.1162 30.4461 93.7614 30.8439 93.3135 31.1127L94.3424 32.8277ZM96.1957 30.6965C96.6111 29.7825 96.7967 28.7164 96.7967 27.5341H94.7967C94.7967 28.5165 94.6414 29.2828 94.375 29.8689L96.1957 30.6965ZM96.7967 27.5341V8.81818H94.7967V27.5341H96.7967Z" fill="#DCB15B" mask="url(#path-2-outside-1_0_1)"/>
</g>
<path d="M0.2144 42.5085V41.7273H5.66895V42.5085H3.38201V49H2.50133V42.5085H0.2144ZM8.3394 49.1136C7.84698 49.1136 7.41492 48.9964 7.04324 48.7621C6.67392 48.5277 6.38509 48.1998 6.17676 47.7784C5.97079 47.357 5.86781 46.8646 5.86781 46.3011C5.86781 45.733 5.97079 45.237 6.17676 44.8132C6.38509 44.3894 6.67392 44.0604 7.04324 43.826C7.41492 43.5916 7.84698 43.4744 8.3394 43.4744C8.83182 43.4744 9.2627 43.5916 9.63201 43.826C10.0037 44.0604 10.2925 44.3894 10.4985 44.8132C10.7068 45.237 10.811 45.733 10.811 46.3011C10.811 46.8646 10.7068 47.357 10.4985 47.7784C10.2925 48.1998 10.0037 48.5277 9.63201 48.7621C9.2627 48.9964 8.83182 49.1136 8.3394 49.1136ZM8.3394 48.3608C8.71345 48.3608 9.02122 48.2649 9.2627 48.0732C9.50417 47.8814 9.68291 47.6293 9.79892 47.3168C9.91492 47.0043 9.97292 46.6657 9.97292 46.3011C9.97292 45.9366 9.91492 45.5968 9.79892 45.282C9.68291 44.9671 9.50417 44.7126 9.2627 44.5185C9.02122 44.3243 8.71345 44.2273 8.3394 44.2273C7.96535 44.2273 7.65758 44.3243 7.4161 44.5185C7.17463 44.7126 6.99589 44.9671 6.87988 45.282C6.76388 45.5968 6.70588 45.9366 6.70588 46.3011C6.70588 46.6657 6.76388 47.0043 6.87988 47.3168C6.99589 47.6293 7.17463 47.8814 7.4161 48.0732C7.65758 48.2649 7.96535 48.3608 8.3394 48.3608ZM13.6954 49.1278C13.3498 49.1278 13.0361 49.0627 12.7544 48.9325C12.4726 48.8 12.2489 48.6094 12.0832 48.3608C11.9175 48.1098 11.8346 47.8068 11.8346 47.4517C11.8346 47.1392 11.8962 46.8859 12.0193 46.6918C12.1424 46.4953 12.3069 46.3414 12.5129 46.2301C12.7188 46.1188 12.9461 46.036 13.1947 45.9815C13.4456 45.9247 13.6978 45.8797 13.9511 45.8466C14.2825 45.804 14.5512 45.772 14.7572 45.7507C14.9655 45.727 15.117 45.688 15.2117 45.6335C15.3088 45.5791 15.3573 45.4844 15.3573 45.3494V45.321C15.3573 44.9706 15.2615 44.6984 15.0697 44.5043C14.8803 44.3101 14.5927 44.2131 14.2068 44.2131C13.8067 44.2131 13.493 44.3007 13.2657 44.4759C13.0384 44.651 12.8786 44.8381 12.7863 45.0369L11.9909 44.7528C12.1329 44.4214 12.3223 44.1634 12.559 43.9787C12.7981 43.7917 13.0586 43.6615 13.3403 43.5881C13.6244 43.5123 13.9037 43.4744 14.1784 43.4744C14.3535 43.4744 14.5548 43.4957 14.782 43.5384C15.0117 43.5786 15.233 43.6626 15.4461 43.7905C15.6615 43.9183 15.8403 44.1113 15.9823 44.3693C16.1244 44.6274 16.1954 44.973 16.1954 45.4062V49H15.3573V48.2614H15.3147C15.2579 48.3797 15.1632 48.5064 15.0306 48.6413C14.8981 48.7763 14.7217 48.8911 14.5015 48.9858C14.2813 49.0805 14.0126 49.1278 13.6954 49.1278ZM13.8232 48.375C14.1547 48.375 14.434 48.3099 14.6613 48.1797C14.891 48.0495 15.0638 47.8814 15.1798 47.6754C15.2981 47.4695 15.3573 47.2528 15.3573 47.0256V46.2585C15.3218 46.3011 15.2437 46.3402 15.123 46.3757C15.0046 46.4089 14.8673 46.4384 14.711 46.4645C14.5571 46.4882 14.4068 46.5095 14.26 46.5284C14.1156 46.545 13.9984 46.5592 13.9085 46.571C13.6907 46.5994 13.4871 46.6456 13.2977 46.7095C13.1106 46.7711 12.9591 46.8646 12.8431 46.9901C12.7295 47.1132 12.6727 47.2812 12.6727 47.4943C12.6727 47.7855 12.7804 48.0057 12.9958 48.1548C13.2136 48.3016 13.4894 48.375 13.8232 48.375ZM14.6045 42.8068H13.9085V42.0398C14.157 42.0256 14.3322 41.9912 14.434 41.9368C14.5382 41.8823 14.5903 41.7983 14.5903 41.6847C14.5903 41.5568 14.5157 41.4633 14.3666 41.4041C14.2174 41.3449 14.0363 41.3153 13.8232 41.3153L13.8517 40.7756C14.3417 40.7756 14.7122 40.8608 14.9632 41.0312C15.2165 41.2017 15.3431 41.429 15.3431 41.7131C15.3431 41.9545 15.2662 42.1309 15.1123 42.2422C14.9584 42.3535 14.7892 42.4233 14.6045 42.4517V42.8068ZM24.4012 44.767L23.6483 44.9801C23.601 44.8546 23.5312 44.7327 23.4388 44.6143C23.3489 44.4936 23.2258 44.3942 23.0695 44.3161C22.9133 44.2379 22.7132 44.1989 22.4694 44.1989C22.1356 44.1989 21.8574 44.2758 21.6349 44.4297C21.4147 44.5812 21.3046 44.7741 21.3046 45.0085C21.3046 45.2169 21.3804 45.3814 21.5319 45.5021C21.6834 45.6229 21.9201 45.7235 22.2421 45.804L23.0518 46.0028C23.5394 46.1212 23.9028 46.3023 24.142 46.5462C24.3811 46.7876 24.5006 47.099 24.5006 47.4801C24.5006 47.7926 24.4107 48.072 24.2307 48.3182C24.0532 48.5644 23.8046 48.7585 23.485 48.9006C23.1654 49.0426 22.7937 49.1136 22.3699 49.1136C21.8136 49.1136 21.3531 48.9929 20.9885 48.7514C20.624 48.5099 20.3931 48.1572 20.2961 47.6932L21.0915 47.4943C21.1673 47.7879 21.3105 48.008 21.5212 48.1548C21.7343 48.3016 22.0125 48.375 22.3557 48.375C22.7464 48.375 23.0565 48.2921 23.2861 48.1264C23.5181 47.9583 23.6341 47.7571 23.6341 47.5227C23.6341 47.3333 23.5679 47.1747 23.4353 47.0469C23.3027 46.9167 23.0991 46.8196 22.8245 46.7557L21.9154 46.5426C21.4159 46.4242 21.0489 46.2408 20.8145 45.9922C20.5825 45.7412 20.4665 45.4276 20.4665 45.0511C20.4665 44.7434 20.5529 44.4711 20.7258 44.2344C20.901 43.9976 21.1389 43.8118 21.4395 43.6768C21.7426 43.5419 22.0858 43.4744 22.4694 43.4744C23.0091 43.4744 23.4329 43.5928 23.7407 43.8295C24.0508 44.0663 24.271 44.3788 24.4012 44.767ZM27.3673 49.1278C27.0216 49.1278 26.7079 49.0627 26.4262 48.9325C26.1445 48.8 25.9208 48.6094 25.7551 48.3608C25.5893 48.1098 25.5065 47.8068 25.5065 47.4517C25.5065 47.1392 25.568 46.8859 25.6911 46.6918C25.8142 46.4953 25.9788 46.3414 26.1847 46.2301C26.3907 46.1188 26.618 46.036 26.8666 45.9815C27.1175 45.9247 27.3696 45.8797 27.623 45.8466C27.9544 45.804 28.2231 45.772 28.4291 45.7507C28.6374 45.727 28.7889 45.688 28.8836 45.6335C28.9807 45.5791 29.0292 45.4844 29.0292 45.3494V45.321C29.0292 44.9706 28.9333 44.6984 28.7416 44.5043C28.5522 44.3101 28.2645 44.2131 27.8786 44.2131C27.4785 44.2131 27.1649 44.3007 26.9376 44.4759C26.7103 44.651 26.5505 44.8381 26.4582 45.0369L25.6627 44.7528C25.8048 44.4214 25.9942 44.1634 26.2309 43.9787C26.47 43.7917 26.7304 43.6615 27.0122 43.5881C27.2963 43.5123 27.5756 43.4744 27.8502 43.4744C28.0254 43.4744 28.2267 43.4957 28.4539 43.5384C28.6836 43.5786 28.9049 43.6626 29.118 43.7905C29.3334 43.9183 29.5122 44.1113 29.6542 44.3693C29.7963 44.6274 29.8673 44.973 29.8673 45.4062V49H29.0292V48.2614H28.9866C28.9298 48.3797 28.8351 48.5064 28.7025 48.6413C28.5699 48.7763 28.3936 48.8911 28.1734 48.9858C27.9532 49.0805 27.6845 49.1278 27.3673 49.1278ZM27.4951 48.375C27.8266 48.375 28.1059 48.3099 28.3332 48.1797C28.5628 48.0495 28.7356 47.8814 28.8517 47.6754C28.97 47.4695 29.0292 47.2528 29.0292 47.0256V46.2585C28.9937 46.3011 28.9156 46.3402 28.7948 46.3757C28.6765 46.4089 28.5392 46.4384 28.3829 46.4645C28.229 46.4882 28.0787 46.5095 27.9319 46.5284C27.7875 46.545 27.6703 46.5592 27.5803 46.571C27.3625 46.5994 27.1589 46.6456 26.9695 46.7095C26.7825 46.7711 26.631 46.8646 26.515 46.9901C26.4014 47.1132 26.3445 47.2812 26.3445 47.4943C26.3445 47.7855 26.4523 48.0057 26.6677 48.1548C26.8855 48.3016 27.1613 48.375 27.4951 48.375ZM27.5235 42.8068L28.39 41.1591H29.3701L28.2622 42.8068H27.5235ZM32.235 45.7188V49H31.3969V43.5455H32.2066V44.3977H32.2776C32.4055 44.1207 32.5996 43.8982 32.86 43.7301C33.1204 43.5597 33.4566 43.4744 33.8685 43.4744C34.2378 43.4744 34.561 43.5502 34.838 43.7017C35.115 43.8509 35.3304 44.0781 35.4843 44.3835C35.6382 44.6866 35.7151 45.0701 35.7151 45.5341V49H34.877V45.5909C34.877 45.1624 34.7658 44.8286 34.5432 44.5895C34.3207 44.348 34.0153 44.2273 33.627 44.2273C33.3595 44.2273 33.1204 44.2853 32.9097 44.4013C32.7014 44.5173 32.5368 44.6866 32.4161 44.9091C32.2954 45.1316 32.235 45.4015 32.235 45.7188ZM39.4482 51.1591C39.0434 51.1591 38.6954 51.107 38.4042 51.0028C38.113 50.901 37.8704 50.7661 37.6762 50.598C37.4845 50.4323 37.3318 50.2547 37.2181 50.0653L37.8857 49.5966C37.9615 49.696 38.0574 49.8097 38.1734 49.9375C38.2894 50.0677 38.448 50.1802 38.6492 50.2749C38.8528 50.3719 39.1192 50.4205 39.4482 50.4205C39.8886 50.4205 40.252 50.3139 40.5384 50.1009C40.8249 49.8878 40.9681 49.554 40.9681 49.0994V47.9915H40.8971C40.8356 48.0909 40.748 48.214 40.6343 48.3608C40.5231 48.5052 40.3621 48.6342 40.1514 48.7479C39.943 48.8591 39.6613 48.9148 39.3062 48.9148C38.8659 48.9148 38.4705 48.8106 38.1201 48.6023C37.7721 48.3939 37.4963 48.0909 37.2927 47.6932C37.0915 47.2955 36.9909 46.8125 36.9909 46.2443C36.9909 45.6856 37.0891 45.1991 37.2856 44.7848C37.4821 44.3681 37.7555 44.0462 38.1059 43.8189C38.4563 43.5893 38.8611 43.4744 39.3204 43.4744C39.6755 43.4744 39.9572 43.5336 40.1656 43.652C40.3763 43.768 40.5373 43.9006 40.6485 44.0497C40.7622 44.1965 40.8498 44.3172 40.9113 44.4119H40.9965V43.5455H41.8062V49.1562C41.8062 49.625 41.6997 50.0062 41.4866 50.2997C41.2759 50.5956 40.9918 50.8123 40.6343 50.9496C40.2792 51.0893 39.8838 51.1591 39.4482 51.1591ZM39.4198 48.1619C39.756 48.1619 40.0401 48.085 40.2721 47.9311C40.5041 47.7772 40.6805 47.5559 40.8012 47.267C40.922 46.9782 40.9823 46.6326 40.9823 46.2301C40.9823 45.8371 40.9231 45.4903 40.8048 45.1896C40.6864 44.889 40.5112 44.6534 40.2792 44.483C40.0472 44.3125 39.7607 44.2273 39.4198 44.2273C39.0647 44.2273 38.7688 44.3172 38.532 44.4972C38.2977 44.6771 38.1213 44.9186 38.0029 45.2216C37.8869 45.5246 37.8289 45.8608 37.8289 46.2301C37.8289 46.6089 37.8881 46.9439 38.0065 47.2351C38.1272 47.5239 38.3048 47.7512 38.5392 47.9169C38.7759 48.0803 39.0695 48.1619 39.4198 48.1619ZM48.5249 43.5455V44.2557H45.6982V43.5455H48.5249ZM46.5221 42.2386H47.3602V47.4375C47.3602 47.6742 47.3945 47.8518 47.4632 47.9702C47.5342 48.0862 47.6241 48.1643 47.733 48.2045C47.8443 48.2424 47.9615 48.2614 48.0846 48.2614C48.1769 48.2614 48.2527 48.2566 48.3119 48.2472C48.3711 48.2353 48.4184 48.2259 48.4539 48.2188L48.6244 48.9716C48.5676 48.9929 48.4883 49.0142 48.3865 49.0355C48.2847 49.0592 48.1556 49.071 47.9994 49.071C47.7626 49.071 47.5306 49.0201 47.3034 48.9183C47.0785 48.8165 46.8914 48.6615 46.7423 48.4531C46.5955 48.2448 46.5221 47.982 46.5221 47.6648V42.2386ZM54.7004 43.304H55.439C55.439 43.6638 55.3917 43.9657 55.297 44.2095C55.2023 44.451 55.0365 44.6333 54.7998 44.7564C54.5631 44.8771 54.2316 44.9375 53.8055 44.9375V44.3551C54.099 44.3551 54.3074 44.3196 54.4305 44.2486C54.556 44.1752 54.6317 44.0616 54.6578 43.9077C54.6862 43.7514 54.7004 43.5502 54.7004 43.304ZM53.2231 46.7699V43.5455H54.0612V49H53.2231V48.0767H53.1663C53.0384 48.3537 52.8396 48.5893 52.5697 48.7834C52.2998 48.9751 51.9589 49.071 51.547 49.071C51.2061 49.071 50.903 48.9964 50.6379 48.8473C50.3727 48.6958 50.1644 48.4685 50.0129 48.1655C49.8614 47.8601 49.7856 47.4754 49.7856 47.0114V43.5455H50.6237V46.9545C50.6237 47.3523 50.7349 47.6695 50.9575 47.9062C51.1824 48.143 51.4688 48.2614 51.8169 48.2614C52.0252 48.2614 52.2371 48.2081 52.4525 48.1016C52.6703 47.995 52.8526 47.8317 52.9994 47.6115C53.1485 47.3913 53.2231 47.1108 53.2231 46.7699ZM51.5754 42.8068L50.4674 41.1591H51.4475L52.314 42.8068H51.5754ZM56.8444 45.7188V49H56.0063V43.5455H56.816V44.3977H56.887C57.0148 44.1207 57.209 43.8982 57.4694 43.7301C57.7298 43.5597 58.066 43.4744 58.4779 43.4744C58.8472 43.4744 59.1704 43.5502 59.4474 43.7017C59.7243 43.8509 59.9398 44.0781 60.0937 44.3835C60.2475 44.6866 60.3245 45.0701 60.3245 45.5341V49H59.4864V45.5909C59.4864 45.1624 59.3751 44.8286 59.1526 44.5895C58.9301 44.348 58.6247 44.2273 58.2364 44.2273C57.9689 44.2273 57.7298 44.2853 57.5191 44.4013C57.3108 44.5173 57.1462 44.6866 57.0255 44.9091C56.9047 45.1316 56.8444 45.4015 56.8444 45.7188ZM64.0576 51.1591C63.6528 51.1591 63.3048 51.107 63.0136 51.0028C62.7224 50.901 62.4797 50.7661 62.2856 50.598C62.0938 50.4323 61.9411 50.2547 61.8275 50.0653L62.4951 49.5966C62.5709 49.696 62.6668 49.8097 62.7828 49.9375C62.8988 50.0677 63.0574 50.1802 63.2586 50.2749C63.4622 50.3719 63.7285 50.4205 64.0576 50.4205C64.498 50.4205 64.8614 50.3139 65.1478 50.1009C65.4343 49.8878 65.5775 49.554 65.5775 49.0994V47.9915H65.5065C65.4449 48.0909 65.3573 48.214 65.2437 48.3608C65.1324 48.5052 64.9714 48.6342 64.7607 48.7479C64.5524 48.8591 64.2707 48.9148 63.9156 48.9148C63.4752 48.9148 63.0799 48.8106 62.7295 48.6023C62.3815 48.3939 62.1057 48.0909 61.9021 47.6932C61.7008 47.2955 61.6002 46.8125 61.6002 46.2443C61.6002 45.6856 61.6985 45.1991 61.895 44.7848C62.0915 44.3681 62.3649 44.0462 62.7153 43.8189C63.0657 43.5893 63.4705 43.4744 63.9298 43.4744C64.2849 43.4744 64.5666 43.5336 64.7749 43.652C64.9856 43.768 65.1466 43.9006 65.2579 44.0497C65.3715 44.1965 65.4591 44.3172 65.5207 44.4119H65.6059V43.5455H66.4156V49.1562C66.4156 49.625 66.309 50.0062 66.096 50.2997C65.8853 50.5956 65.6012 50.8123 65.2437 50.9496C64.8886 51.0893 64.4932 51.1591 64.0576 51.1591ZM64.0292 48.1619C64.3654 48.1619 64.6495 48.085 64.8815 47.9311C65.1135 47.7772 65.2899 47.5559 65.4106 47.267C65.5313 46.9782 65.5917 46.6326 65.5917 46.2301C65.5917 45.8371 65.5325 45.4903 65.4142 45.1896C65.2958 44.889 65.1206 44.6534 64.8886 44.483C64.6566 44.3125 64.3701 44.2273 64.0292 44.2273C63.6741 44.2273 63.3782 44.3172 63.1414 44.4972C62.907 44.6771 62.7307 44.9186 62.6123 45.2216C62.4963 45.5246 62.4383 45.8608 62.4383 46.2301C62.4383 46.6089 62.4975 46.9439 62.6159 47.2351C62.7366 47.5239 62.9142 47.7512 63.1485 47.9169C63.3853 48.0803 63.6788 48.1619 64.0292 48.1619ZM71.5434 47.0114L71.5292 45.9744H71.6997L74.086 43.5455H75.123L72.5803 46.1165H72.5093L71.5434 47.0114ZM70.7622 49V41.7273H71.6002V49H70.7622ZM74.2281 49L72.0974 46.3011L72.694 45.7188L75.2934 49H74.2281ZM77.0397 45.7188V49H76.2016V41.7273H77.0397V44.3977H77.1107C77.2385 44.116 77.4303 43.8923 77.686 43.7266C77.944 43.5585 78.2873 43.4744 78.7158 43.4744C79.0875 43.4744 79.413 43.549 79.6924 43.6982C79.9717 43.8449 80.1884 44.071 80.3422 44.3764C80.4985 44.6795 80.5766 45.0653 80.5766 45.5341V49H79.7385V45.5909C79.7385 45.1577 79.6261 44.8227 79.4012 44.5859C79.1787 44.3468 78.8697 44.2273 78.4743 44.2273C78.1997 44.2273 77.9535 44.2853 77.7357 44.4013C77.5203 44.5173 77.3498 44.6866 77.2243 44.9091C77.1012 45.1316 77.0397 45.4015 77.0397 45.7188ZM84.3257 49.1136C83.8333 49.1136 83.4012 48.9964 83.0296 48.7621C82.6602 48.5277 82.3714 48.1998 82.1631 47.7784C81.9571 47.357 81.8541 46.8646 81.8541 46.3011C81.8541 45.733 81.9571 45.237 82.1631 44.8132C82.3714 44.3894 82.6602 44.0604 83.0296 43.826C83.4012 43.5916 83.8333 43.4744 84.3257 43.4744C84.8182 43.4744 85.249 43.5916 85.6183 43.826C85.99 44.0604 86.2789 44.3894 86.4848 44.8132C86.6932 45.237 86.7973 45.733 86.7973 46.3011C86.7973 46.8646 86.6932 47.357 86.4848 47.7784C86.2789 48.1998 85.99 48.5277 85.6183 48.7621C85.249 48.9964 84.8182 49.1136 84.3257 49.1136ZM84.3257 48.3608C84.6998 48.3608 85.0075 48.2649 85.249 48.0732C85.4905 47.8814 85.6692 47.6293 85.7852 47.3168C85.9012 47.0043 85.9593 46.6657 85.9593 46.3011C85.9593 45.9366 85.9012 45.5968 85.7852 45.282C85.6692 44.9671 85.4905 44.7126 85.249 44.5185C85.0075 44.3243 84.6998 44.2273 84.3257 44.2273C83.9517 44.2273 83.6439 44.3243 83.4024 44.5185C83.161 44.7126 82.9822 44.9671 82.8662 45.282C82.7502 45.5968 82.6922 45.9366 82.6922 46.3011C82.6922 46.6657 82.7502 47.0043 82.8662 47.3168C82.9822 47.6293 83.161 47.8814 83.4024 48.0732C83.6439 48.2649 83.9517 48.3608 84.3257 48.3608ZM89.6817 49.1278C89.3361 49.1278 89.0224 49.0627 88.7407 48.9325C88.459 48.8 88.2352 48.6094 88.0695 48.3608C87.9038 48.1098 87.8209 47.8068 87.8209 47.4517C87.8209 47.1392 87.8825 46.8859 88.0056 46.6918C88.1287 46.4953 88.2932 46.3414 88.4992 46.2301C88.7052 46.1188 88.9324 46.036 89.181 45.9815C89.432 45.9247 89.6841 45.8797 89.9374 45.8466C90.2689 45.804 90.5376 45.772 90.7435 45.7507C90.9519 45.727 91.1034 45.688 91.1981 45.6335C91.2951 45.5791 91.3437 45.4844 91.3437 45.3494V45.321C91.3437 44.9706 91.2478 44.6984 91.056 44.5043C90.8666 44.3101 90.579 44.2131 90.1931 44.2131C89.793 44.2131 89.4793 44.3007 89.252 44.4759C89.0248 44.651 88.865 44.8381 88.7726 45.0369L87.9772 44.7528C88.1192 44.4214 88.3086 44.1634 88.5454 43.9787C88.7845 43.7917 89.0449 43.6615 89.3266 43.5881C89.6107 43.5123 89.8901 43.4744 90.1647 43.4744C90.3399 43.4744 90.5411 43.4957 90.7684 43.5384C90.998 43.5786 91.2194 43.6626 91.4324 43.7905C91.6479 43.9183 91.8266 44.1113 91.9687 44.3693C92.1107 44.6274 92.1817 44.973 92.1817 45.4062V49H91.3437V48.2614H91.301C91.2442 48.3797 91.1495 48.5064 91.017 48.6413C90.8844 48.7763 90.708 48.8911 90.4878 48.9858C90.2677 49.0805 89.999 49.1278 89.6817 49.1278ZM89.8096 48.375C90.141 48.375 90.4204 48.3099 90.6476 48.1797C90.8773 48.0495 91.0501 47.8814 91.1661 47.6754C91.2845 47.4695 91.3437 47.2528 91.3437 47.0256V46.2585C91.3081 46.3011 91.23 46.3402 91.1093 46.3757C90.9909 46.4089 90.8536 46.4384 90.6974 46.4645C90.5435 46.4882 90.3931 46.5095 90.2464 46.5284C90.1019 46.545 89.9848 46.5592 89.8948 46.571C89.677 46.5994 89.4734 46.6456 89.284 46.7095C89.097 46.7711 88.9455 46.8646 88.8295 46.9901C88.7158 47.1132 88.659 47.2812 88.659 47.4943C88.659 47.7855 88.7667 48.0057 88.9822 48.1548C89.2 48.3016 89.4758 48.375 89.8096 48.375ZM90.5908 42.8068H89.8948V42.0398C90.1434 42.0256 90.3186 41.9912 90.4204 41.9368C90.5245 41.8823 90.5766 41.7983 90.5766 41.6847C90.5766 41.5568 90.502 41.4633 90.3529 41.4041C90.2037 41.3449 90.0226 41.3153 89.8096 41.3153L89.838 40.7756C90.328 40.7756 90.6985 40.8608 90.9495 41.0312C91.2028 41.2017 91.3295 41.429 91.3295 41.7131C91.3295 41.9545 91.2525 42.1309 91.0986 42.2422C90.9448 42.3535 90.7755 42.4233 90.5908 42.4517V42.8068ZM94.5494 45.7188V49H93.7114V43.5455H94.521V44.3977H94.5921C94.7199 44.1207 94.914 43.8982 95.1744 43.7301C95.4349 43.5597 95.771 43.4744 96.183 43.4744C96.5523 43.4744 96.8754 43.5502 97.1524 43.7017C97.4294 43.8509 97.6449 44.0781 97.7987 44.3835C97.9526 44.6866 98.0296 45.0701 98.0296 45.5341V49H97.1915V45.5909C97.1915 45.1624 97.0802 44.8286 96.8577 44.5895C96.6352 44.348 96.3298 44.2273 95.9415 44.2273C95.674 44.2273 95.4349 44.2853 95.2242 44.4013C95.0158 44.5173 94.8513 44.6866 94.7306 44.9091C94.6098 45.1316 94.5494 45.4015 94.5494 45.7188ZM101.763 51.1591C101.358 51.1591 101.01 51.107 100.719 51.0028C100.427 50.901 100.185 50.7661 99.9907 50.598C99.7989 50.4323 99.6462 50.2547 99.5326 50.0653L100.2 49.5966C100.276 49.696 100.372 49.8097 100.488 49.9375C100.604 50.0677 100.762 50.1802 100.964 50.2749C101.167 50.3719 101.434 50.4205 101.763 50.4205C102.203 50.4205 102.566 50.3139 102.853 50.1009C103.139 49.8878 103.283 49.554 103.283 49.0994V47.9915H103.212C103.15 48.0909 103.062 48.214 102.949 48.3608C102.838 48.5052 102.677 48.6342 102.466 48.7479C102.257 48.8591 101.976 48.9148 101.621 48.9148C101.18 48.9148 100.785 48.8106 100.435 48.6023C100.087 48.3939 99.8108 48.0909 99.6072 47.6932C99.4059 47.2955 99.3053 46.8125 99.3053 46.2443C99.3053 45.6856 99.4036 45.1991 99.6001 44.7848C99.7965 44.3681 100.07 44.0462 100.42 43.8189C100.771 43.5893 101.176 43.4744 101.635 43.4744C101.99 43.4744 102.272 43.5336 102.48 43.652C102.691 43.768 102.852 43.9006 102.963 44.0497C103.077 44.1965 103.164 44.3172 103.226 44.4119H103.311V43.5455H104.121V49.1562C104.121 49.625 104.014 50.0062 103.801 50.2997C103.59 50.5956 103.306 50.8123 102.949 50.9496C102.594 51.0893 102.198 51.1591 101.763 51.1591ZM101.734 48.1619C102.07 48.1619 102.355 48.085 102.587 47.9311C102.819 47.7772 102.995 47.5559 103.116 47.267C103.236 46.9782 103.297 46.6326 103.297 46.2301C103.297 45.8371 103.238 45.4903 103.119 45.1896C103.001 44.889 102.826 44.6534 102.594 44.483C102.362 44.3125 102.075 44.2273 101.734 44.2273C101.379 44.2273 101.083 44.3172 100.847 44.4972C100.612 44.6771 100.436 44.9186 100.317 45.2216C100.201 45.5246 100.143 45.8608 100.143 46.2301C100.143 46.6089 100.203 46.9439 100.321 47.2351C100.442 47.5239 100.619 47.7512 100.854 47.9169C101.09 48.0803 101.384 48.1619 101.734 48.1619ZM109.248 47.0114L109.234 45.9744H109.405L111.791 43.5455H112.828L110.285 46.1165H110.214L109.248 47.0114ZM108.467 49V41.7273H109.305V49H108.467ZM111.933 49L109.802 46.3011L110.399 45.7188L112.998 49H111.933ZM114.745 45.7188V49H113.907V41.7273H114.745V44.3977H114.816C114.944 44.116 115.135 43.8923 115.391 43.7266C115.649 43.5585 115.992 43.4744 116.421 43.4744C116.793 43.4744 117.118 43.549 117.397 43.6982C117.677 43.8449 117.893 44.071 118.047 44.3764C118.204 44.6795 118.282 45.0653 118.282 45.5341V49H117.444V45.5909C117.444 45.1577 117.331 44.8227 117.106 44.5859C116.884 44.3468 116.575 44.2273 116.179 44.2273C115.905 44.2273 115.659 44.2853 115.441 44.4013C115.225 44.5173 115.055 44.6866 114.929 44.9091C114.806 45.1316 114.745 45.4015 114.745 45.7188ZM121.42 49.1278C121.074 49.1278 120.761 49.0627 120.479 48.9325C120.197 48.8 119.974 48.6094 119.808 48.3608C119.642 48.1098 119.559 47.8068 119.559 47.4517C119.559 47.1392 119.621 46.8859 119.744 46.6918C119.867 46.4953 120.032 46.3414 120.237 46.2301C120.443 46.1188 120.671 46.036 120.919 45.9815C121.17 45.9247 121.422 45.8797 121.676 45.8466C122.007 45.804 122.276 45.772 122.482 45.7507C122.69 45.727 122.842 45.688 122.936 45.6335C123.033 45.5791 123.082 45.4844 123.082 45.3494V45.321C123.082 44.9706 122.986 44.6984 122.794 44.5043C122.605 44.3101 122.317 44.2131 121.931 44.2131C121.531 44.2131 121.218 44.3007 120.99 44.4759C120.763 44.651 120.603 44.8381 120.511 45.0369L119.715 44.7528C119.858 44.4214 120.047 44.1634 120.284 43.9787C120.523 43.7917 120.783 43.6615 121.065 43.5881C121.349 43.5123 121.628 43.4744 121.903 43.4744C122.078 43.4744 122.279 43.4957 122.507 43.5384C122.736 43.5786 122.958 43.6626 123.171 43.7905C123.386 43.9183 123.565 44.1113 123.707 44.3693C123.849 44.6274 123.92 44.973 123.92 45.4062V49H123.082V48.2614H123.039C122.983 48.3797 122.888 48.5064 122.755 48.6413C122.623 48.7763 122.446 48.8911 122.226 48.9858C122.006 49.0805 121.737 49.1278 121.42 49.1278ZM121.548 48.375C121.879 48.375 122.159 48.3099 122.386 48.1797C122.616 48.0495 122.788 47.8814 122.904 47.6754C123.023 47.4695 123.082 47.2528 123.082 47.0256V46.2585C123.046 46.3011 122.968 46.3402 122.848 46.3757C122.729 46.4089 122.592 46.4384 122.436 46.4645C122.282 46.4882 122.131 46.5095 121.985 46.5284C121.84 46.545 121.723 46.5592 121.633 46.571C121.415 46.5994 121.212 46.6456 121.022 46.7095C120.835 46.7711 120.684 46.8646 120.568 46.9901C120.454 47.1132 120.397 47.2812 120.397 47.4943C120.397 47.7855 120.505 48.0057 120.72 48.1548C120.938 48.3016 121.214 48.375 121.548 48.375ZM122.627 41.8835H123.423C123.423 42.1818 123.289 42.4268 123.022 42.6186C122.756 42.8104 122.393 42.9062 121.931 42.9062C121.47 42.9062 121.105 42.8104 120.838 42.6186C120.572 42.4268 120.44 42.1818 120.44 41.8835H121.235C121.235 42.0327 121.287 42.1629 121.392 42.2741C121.496 42.383 121.676 42.4375 121.931 42.4375C122.18 42.4375 122.358 42.383 122.464 42.2741C122.573 42.1629 122.627 42.0327 122.627 41.8835ZM121.647 41.7699L122.173 40.804H122.968L122.173 41.7699H121.647ZM127.666 49.1136C127.154 49.1136 126.714 48.9929 126.345 48.7514C125.975 48.5099 125.691 48.1773 125.492 47.7536C125.293 47.3298 125.194 46.8456 125.194 46.3011C125.194 45.7472 125.296 45.2583 125.499 44.8345C125.705 44.4084 125.992 44.0758 126.359 43.8366C126.728 43.5952 127.159 43.4744 127.651 43.4744C128.035 43.4744 128.381 43.5455 128.688 43.6875C128.996 43.8295 129.248 44.0284 129.445 44.2841C129.641 44.5398 129.763 44.8381 129.81 45.179H128.972C128.908 44.9304 128.766 44.7102 128.546 44.5185C128.328 44.3243 128.035 44.2273 127.666 44.2273C127.339 44.2273 127.052 44.3125 126.806 44.483C126.562 44.651 126.372 44.889 126.234 45.1967C126.1 45.5021 126.032 45.8608 126.032 46.2727C126.032 46.6941 126.098 47.0611 126.231 47.3736C126.366 47.6861 126.555 47.9287 126.799 48.1016C127.045 48.2744 127.334 48.3608 127.666 48.3608C127.883 48.3608 128.081 48.3229 128.259 48.2472C128.436 48.1714 128.586 48.0625 128.71 47.9205C128.833 47.7784 128.92 47.608 128.972 47.4091H129.81C129.763 47.7311 129.646 48.0211 129.459 48.2791C129.274 48.5348 129.029 48.7384 128.724 48.8899C128.421 49.0391 128.068 49.1136 127.666 49.1136Z" fill="#DCB15B"/>
<defs>
<filter id="filter0_b_0_1" x="28.0201" y="4.81824" width="74.9471" height="34.5397" filterUnits="userSpaceOnUse" color-interpolation-filters="sRGB">
<feFlood flood-opacity="0" result="BackgroundImageFix"/>
<feGaussianBlur in="BackgroundImageFix" stdDeviation="2"/>
<feComposite in2="SourceAlpha" operator="in" result="effect1_backgroundBlur_0_1"/>
<feBlend mode="normal" in="SourceGraphic" in2="effect1_backgroundBlur_0_1" result="shape"/>
</filter>
</defs>
</svg>
