<svg width="130" height="60" viewBox="0 0 130 60" fill="none" xmlns="http://www.w3.org/2000/svg">
<rect width="130" height="60" fill="#1E1E1E"/>
<rect width="130" height="60" fill="white"/>
<g style="mix-blend-mode:darken" filter="url(#filter0_b_0_1)">
<mask id="path-2-outside-1_0_1" maskUnits="userSpaceOnUse" x="43" y="7" width="47" height="29" fill="black">
<rect fill="white" x="43" y="7" width="47" height="29"/>
<path d="M44.7642 35V8.81818H47.9347V21.8068H48.2415L60.0028 8.81818H64.1449L53.1506 20.6307L64.1449 35H60.3097L51.2074 22.8295L47.9347 26.5114V35H44.7642ZM69.3224 8.81818L77.0952 30.858H77.402L85.1747 8.81818H88.4986L78.8849 35H75.6122L65.9986 8.81818H69.3224Z"/>
</mask>
<path d="M44.7642 35V8.81818H47.9347V21.8068H48.2415L60.0028 8.81818H64.1449L53.1506 20.6307L64.1449 35H60.3097L51.2074 22.8295L47.9347 26.5114V35H44.7642ZM69.3224 8.81818L77.0952 30.858H77.402L85.1747 8.81818H88.4986L78.8849 35H75.6122L65.9986 8.81818H69.3224Z" fill="#DFB769"/>
<path d="M44.7642 35H43.7642V36H44.7642V35ZM44.7642 8.81818V7.81818H43.7642V8.81818H44.7642ZM47.9347 8.81818H48.9347V7.81818H47.9347V8.81818ZM47.9347 21.8068H46.9347V22.8068H47.9347V21.8068ZM48.2415 21.8068V22.8068H48.685L48.9827 22.478L48.2415 21.8068ZM60.0028 8.81818V7.81818H59.5593L59.2616 8.14696L60.0028 8.81818ZM64.1449 8.81818L64.8769 9.49948L66.4417 7.81818H64.1449V8.81818ZM53.1506 20.6307L52.4186 19.9494L51.8432 20.5676L52.3564 21.2383L53.1506 20.6307ZM64.1449 35V36H66.1691L64.9391 34.3923L64.1449 35ZM60.3097 35L59.5089 35.5989L59.8088 36H60.3097V35ZM51.2074 22.8295L52.0082 22.2306L51.2742 21.2492L50.46 22.1652L51.2074 22.8295ZM47.9347 26.5114L47.1873 25.847L46.9347 26.1312V26.5114H47.9347ZM47.9347 35V36H48.9347V35H47.9347ZM45.7642 35V8.81818H43.7642V35H45.7642ZM44.7642 9.81818H47.9347V7.81818H44.7642V9.81818ZM46.9347 8.81818V21.8068H48.9347V8.81818H46.9347ZM47.9347 22.8068H48.2415V20.8068H47.9347V22.8068ZM48.9827 22.478L60.7441 9.4894L59.2616 8.14696L47.5002 21.1356L48.9827 22.478ZM60.0028 9.81818H64.1449V7.81818H60.0028V9.81818ZM63.4129 8.13688L52.4186 19.9494L53.8826 21.312L64.8769 9.49948L63.4129 8.13688ZM52.3564 21.2383L63.3507 35.6077L64.9391 34.3923L53.9448 20.023L52.3564 21.2383ZM64.1449 34H60.3097V36H64.1449V34ZM61.1105 34.4011L52.0082 22.2306L50.4066 23.4285L59.5089 35.5989L61.1105 34.4011ZM50.46 22.1652L47.1873 25.847L48.6821 27.1757L51.9548 23.4939L50.46 22.1652ZM46.9347 26.5114V35H48.9347V26.5114H46.9347ZM47.9347 34H44.7642V36H47.9347V34ZM69.3224 8.81818L70.2655 8.48559L70.0301 7.81818H69.3224V8.81818ZM77.0952 30.858L76.1521 31.1905L76.3875 31.858H77.0952V30.858ZM77.402 30.858V31.858H78.1097L78.3451 31.1905L77.402 30.858ZM85.1747 8.81818V7.81818H84.467L84.2316 8.48559L85.1747 8.81818ZM88.4986 8.81818L89.4373 9.16287L89.931 7.81818H88.4986V8.81818ZM78.8849 35V36H79.583L79.8237 35.3447L78.8849 35ZM75.6122 35L74.6735 35.3447L74.9141 36H75.6122V35ZM65.9986 8.81818V7.81818H64.5661L65.0599 9.16287L65.9986 8.81818ZM68.3794 9.15077L76.1521 31.1905L78.0382 30.5254L70.2655 8.48559L68.3794 9.15077ZM77.0952 31.858H77.402V29.858H77.0952V31.858ZM78.3451 31.1905L86.1178 9.15077L84.2316 8.48559L76.4589 30.5254L78.3451 31.1905ZM85.1747 9.81818H88.4986V7.81818H85.1747V9.81818ZM87.5599 8.4735L77.9462 34.6553L79.8237 35.3447L89.4373 9.16287L87.5599 8.4735ZM78.8849 34H75.6122V36H78.8849V34ZM76.5509 34.6553L66.9373 8.4735L65.0599 9.16287L74.6735 35.3447L76.5509 34.6553ZM65.9986 9.81818H69.3224V7.81818H65.9986V9.81818Z" fill="#DCB15B" mask="url(#path-2-outside-1_0_1)"/>
</g>
<path d="M13.3133 52V42.5455H14.4582V47.2358H14.569L18.8162 42.5455H20.3119L16.3418 46.8111L20.3119 52H18.927L15.64 47.6051L14.4582 48.9347V52H13.3133ZM22.0904 52V44.9091H23.1799V52H22.0904ZM22.6444 43.7273C22.432 43.7273 22.2489 43.6549 22.095 43.5103C21.9442 43.3656 21.8688 43.1918 21.8688 42.9886C21.8688 42.7855 21.9442 42.6116 22.095 42.467C22.2489 42.3223 22.432 42.25 22.6444 42.25C22.8568 42.25 23.0383 42.3223 23.1891 42.467C23.343 42.6116 23.42 42.7855 23.42 42.9886C23.42 43.1918 23.343 43.3656 23.1891 43.5103C23.0383 43.6549 22.8568 43.7273 22.6444 43.7273ZM25.1754 52V44.9091H26.2279V46.017H26.3203C26.468 45.6385 26.7065 45.3446 27.0358 45.1353C27.3651 44.9229 27.7606 44.8168 28.2223 44.8168C28.6901 44.8168 29.0794 44.9229 29.3902 45.1353C29.7041 45.3446 29.9488 45.6385 30.1242 46.017H30.1981C30.3797 45.6508 30.6521 45.36 31.0152 45.1445C31.3784 44.926 31.8139 44.8168 32.3217 44.8168C32.9557 44.8168 33.4743 45.0153 33.8774 45.4123C34.2806 45.8062 34.4822 46.4202 34.4822 47.2543V52H33.3927V47.2543C33.3927 46.7311 33.2496 46.3571 32.9634 46.1325C32.6772 45.9078 32.3402 45.7955 31.9524 45.7955C31.4538 45.7955 31.0675 45.9463 30.7936 46.2479C30.5197 46.5464 30.3828 46.925 30.3828 47.3835V52H29.2748V47.1435C29.2748 46.7403 29.144 46.4156 28.8824 46.1694C28.6208 45.9201 28.2838 45.7955 27.8714 45.7955C27.5883 45.7955 27.3236 45.8709 27.0774 46.0217C26.8342 46.1725 26.6373 46.3817 26.4865 46.6495C26.3387 46.9142 26.2649 47.2204 26.2649 47.5682V52H25.1754ZM40.666 42.5455L43.4728 50.5043H43.5836L46.3904 42.5455H47.5907L44.1191 52H42.9373L39.4657 42.5455H40.666ZM48.9156 52V44.9091H50.0051V52H48.9156ZM49.4696 43.7273C49.2572 43.7273 49.0741 43.6549 48.9202 43.5103C48.7694 43.3656 48.694 43.1918 48.694 42.9886C48.694 42.7855 48.7694 42.6116 48.9202 42.467C49.0741 42.3223 49.2572 42.25 49.4696 42.25C49.682 42.25 49.8635 42.3223 50.0143 42.467C50.1682 42.6116 50.2452 42.7855 50.2452 42.9886C50.2452 43.1918 50.1682 43.3656 50.0143 43.5103C49.8635 43.6549 49.682 43.7273 49.4696 43.7273ZM53.0901 47.7344V52H52.0006V44.9091H53.0531V46.017H53.1455C53.3117 45.657 53.564 45.3677 53.9026 45.1491C54.2411 44.9276 54.6781 44.8168 55.2136 44.8168C55.6938 44.8168 56.1139 44.9152 56.4739 45.1122C56.834 45.3061 57.1141 45.6016 57.3141 45.9986C57.5142 46.3925 57.6142 46.8911 57.6142 47.4943V52H56.5247V47.5682C56.5247 47.0111 56.3801 46.5772 56.0908 46.2663C55.8015 45.9524 55.4045 45.7955 54.8997 45.7955C54.552 45.7955 54.2411 45.8709 53.9672 46.0217C53.6964 46.1725 53.4825 46.3925 53.3255 46.6818C53.1685 46.9711 53.0901 47.322 53.0901 47.7344ZM60.6946 47.7344V52H59.6051V42.5455H60.6946V46.017H60.7869C60.9531 45.6508 61.2024 45.36 61.5348 45.1445C61.8702 44.926 62.3165 44.8168 62.8735 44.8168C63.3567 44.8168 63.7799 44.9137 64.1431 45.1076C64.5062 45.2984 64.7878 45.5923 64.9879 45.9893C65.191 46.3833 65.2926 46.8849 65.2926 47.4943V52H64.2031V47.5682C64.2031 47.005 64.0569 46.5695 63.7645 46.2617C63.4752 45.9509 63.0736 45.7955 62.5596 45.7955C62.2026 45.7955 61.8825 45.8709 61.5994 46.0217C61.3193 46.1725 61.0977 46.3925 60.9346 46.6818C60.7746 46.9711 60.6946 47.322 60.6946 47.7344ZM74.709 42.5455H75.8539V49.304C75.8539 49.9072 75.7431 50.4196 75.5215 50.8413C75.2999 51.2629 74.9876 51.583 74.5844 51.8015C74.1812 52.02 73.7057 52.1293 73.1579 52.1293C72.6408 52.1293 72.1807 52.0354 71.7776 51.8477C71.3744 51.6568 71.0574 51.386 70.8266 51.0352C70.5957 50.6843 70.4803 50.2673 70.4803 49.7841H71.6068C71.6068 50.0518 71.6729 50.2857 71.8053 50.4858C71.9407 50.6828 72.1253 50.8366 72.3592 50.9474C72.5931 51.0582 72.8594 51.1136 73.1579 51.1136C73.4872 51.1136 73.7673 51.0444 73.9981 50.9059C74.2289 50.7674 74.4043 50.5643 74.5244 50.2965C74.6475 50.0257 74.709 49.6948 74.709 49.304V42.5455ZM80.9736 52.1477C80.2903 52.1477 79.701 51.9969 79.2055 51.6953C78.7131 51.3906 78.333 50.9659 78.0652 50.4212C77.8005 49.8733 77.6682 49.2363 77.6682 48.5099C77.6682 47.7836 77.8005 47.1435 78.0652 46.5895C78.333 46.0324 78.7054 45.5985 79.1824 45.2876C79.6625 44.9737 80.2226 44.8168 80.8628 44.8168C81.2321 44.8168 81.5968 44.8783 81.9569 45.0014C82.317 45.1245 82.6448 45.3246 82.9402 45.6016C83.2357 45.8755 83.4711 46.2386 83.6465 46.6911C83.822 47.1435 83.9097 47.7005 83.9097 48.3622V48.8239H78.4438V47.8821H82.8017C82.8017 47.482 82.7217 47.125 82.5617 46.8111C82.4047 46.4972 82.18 46.2494 81.8877 46.0678C81.5984 45.8862 81.2567 45.7955 80.8628 45.7955C80.4288 45.7955 80.0534 45.9032 79.7364 46.1186C79.4225 46.331 79.1809 46.608 79.0116 46.9496C78.8423 47.2912 78.7577 47.6574 78.7577 48.0483V48.6761C78.7577 49.2116 78.85 49.6656 79.0347 50.038C79.2224 50.4073 79.4825 50.6889 79.8149 50.8828C80.1472 51.0736 80.5335 51.169 80.9736 51.169C81.2598 51.169 81.5183 51.129 81.7492 51.049C81.9831 50.9659 82.1846 50.8428 82.3539 50.6797C82.5232 50.5135 82.654 50.3073 82.7463 50.0611L83.7989 50.3565C83.6881 50.7135 83.5019 51.0275 83.2403 51.2983C82.9787 51.5661 82.6555 51.7753 82.2708 51.9261C81.8861 52.0739 81.4537 52.1477 80.9736 52.1477ZM87.1735 52L85.013 44.9091H86.1579L87.6906 50.3381H87.7644L89.2786 44.9091H90.442L91.9377 50.3196H92.0116L93.5443 44.9091H94.6891L92.5286 52H91.4576L89.9065 46.5526H89.7957L88.2445 52H87.1735ZM98.8613 52.1477C98.178 52.1477 97.5887 51.9969 97.0932 51.6953C96.6007 51.3906 96.2207 50.9659 95.9529 50.4212C95.6882 49.8733 95.5559 49.2363 95.5559 48.5099C95.5559 47.7836 95.6882 47.1435 95.9529 46.5895C96.2207 46.0324 96.5931 45.5985 97.0701 45.2876C97.5502 44.9737 98.1103 44.8168 98.7505 44.8168C99.1198 44.8168 99.4845 44.8783 99.8446 45.0014C100.205 45.1245 100.532 45.3246 100.828 45.6016C101.123 45.8755 101.359 46.2386 101.534 46.6911C101.71 47.1435 101.797 47.7005 101.797 48.3622V48.8239H96.3315V47.8821H100.689C100.689 47.482 100.609 47.125 100.449 46.8111C100.292 46.4972 100.068 46.2494 99.7753 46.0678C99.486 45.8862 99.1444 45.7955 98.7505 45.7955C98.3165 45.7955 97.9411 45.9032 97.6241 46.1186C97.3101 46.331 97.0686 46.608 96.8993 46.9496C96.73 47.2912 96.6454 47.6574 96.6454 48.0483V48.6761C96.6454 49.2116 96.7377 49.6656 96.9224 50.038C97.1101 50.4073 97.3702 50.6889 97.7025 50.8828C98.0349 51.0736 98.4212 51.169 98.8613 51.169C99.1475 51.169 99.406 51.129 99.6369 51.049C99.8708 50.9659 100.072 50.8428 100.242 50.6797C100.411 50.5135 100.542 50.3073 100.634 50.0611L101.687 50.3565C101.576 50.7135 101.39 51.0275 101.128 51.2983C100.866 51.5661 100.543 51.7753 100.159 51.9261C99.7738 52.0739 99.3414 52.1477 98.8613 52.1477ZM104.544 42.5455V52H103.455V42.5455H104.544ZM106.54 52V44.9091H107.592V45.9801H107.666C107.795 45.6293 108.029 45.3446 108.368 45.1261C108.706 44.9076 109.088 44.7983 109.513 44.7983C109.593 44.7983 109.693 44.7998 109.813 44.8029C109.933 44.806 110.024 44.8106 110.085 44.8168V45.9247C110.048 45.9155 109.964 45.9016 109.831 45.8832C109.702 45.8616 109.565 45.8509 109.42 45.8509C109.076 45.8509 108.768 45.9232 108.497 46.0678C108.229 46.2094 108.017 46.4064 107.86 46.6587C107.706 46.908 107.629 47.1927 107.629 47.5128V52H106.54ZM112.294 54.6591C112.109 54.6591 111.945 54.6437 111.8 54.6129C111.655 54.5852 111.555 54.5575 111.5 54.5298L111.777 53.5696C112.042 53.6373 112.276 53.6619 112.479 53.6435C112.682 53.625 112.862 53.5342 113.019 53.3711C113.179 53.2111 113.325 52.951 113.457 52.5909L113.661 52.0369L111.038 44.9091H112.22L114.178 50.5597H114.251L116.209 44.9091H117.391L114.381 53.0341C114.245 53.4003 114.078 53.7035 113.878 53.9435C113.677 54.1867 113.445 54.3667 113.18 54.4837C112.919 54.6006 112.623 54.6591 112.294 54.6591Z" fill="#DCB15B"/>
<defs>
<filter id="filter0_b_0_1" x="40.7642" y="4.81824" width="51.7344" height="34.1818" filterUnits="userSpaceOnUse" color-interpolation-filters="sRGB">
<feFlood flood-opacity="0" result="BackgroundImageFix"/>
<feGaussianBlur in="BackgroundImageFix" stdDeviation="2"/>
<feComposite in2="SourceAlpha" operator="in" result="effect1_backgroundBlur_0_1"/>
<feBlend mode="normal" in="SourceGraphic" in2="effect1_backgroundBlur_0_1" result="shape"/>
</filter>
</defs>
</svg>
